<svg width="1280" height="960" viewBox="0 0 1280 960" fill="none" xmlns="http://www.w3.org/2000/svg">
  <defs>
    <linearGradient id="bg" x1="112" y1="96" x2="1128" y2="864" gradientUnits="userSpaceOnUse">
      <stop stop-color="#1F2441"/>
      <stop offset="0.52" stop-color="#1A2140"/>
      <stop offset="1" stop-color="#141B33"/>
    </linearGradient>
    <linearGradient id="panel" x1="248" y1="180" x2="980" y2="756" gradientUnits="userSpaceOnUse">
      <stop stop-color="#273156"/>
      <stop offset="1" stop-color="#1C2445"/>
    </linearGradient>
    <linearGradient id="accent" x1="308" y1="236" x2="916" y2="716" gradientUnits="userSpaceOnUse">
      <stop stop-color="#6B66DA"/>
      <stop offset="0.48" stop-color="#2E90FF"/>
      <stop offset="1" stop-color="#2FC3AA"/>
    </linearGradient>
    <linearGradient id="iconGlow" x1="0" y1="0" x2="1" y2="1">
      <stop stop-color="#FFB74A"/>
      <stop offset="0.45" stop-color="#FF4F8B"/>
      <stop offset="1" stop-color="#5B8DFF"/>
    </linearGradient>
    <filter id="soft" x="-80" y="-80" width="1440" height="1120" filterUnits="userSpaceOnUse" color-interpolation-filters="sRGB">
      <feGaussianBlur stdDeviation="40"/>
    </filter>
    <filter id="shadow" x="190" y="132" width="892" height="696" filterUnits="userSpaceOnUse" color-interpolation-filters="sRGB">
      <feDropShadow dx="0" dy="22" stdDeviation="34" flood-color="#070B18" flood-opacity="0.34"/>
    </filter>
  </defs>

  <rect width="1280" height="960" rx="36" fill="url(#bg)"/>
  <g filter="url(#soft)" opacity="0.8">
    <circle cx="292" cy="214" r="124" fill="#6B66DA"/>
    <circle cx="1002" cy="212" r="150" fill="#2E90FF"/>
    <circle cx="902" cy="760" r="152" fill="#2FC3AA"/>
  </g>

  <g filter="url(#shadow)">
    <rect x="232" y="174" width="808" height="612" rx="42" fill="url(#panel)"/>
    <rect x="232.75" y="174.75" width="806.5" height="610.5" rx="41.25" stroke="rgba(255,255,255,0.16)"/>
  </g>

  <rect x="286" y="230" width="708" height="92" rx="26" fill="rgba(255,255,255,0.06)" stroke="rgba(255,255,255,0.12)"/>
  <rect x="324" y="258" width="148" height="36" rx="18" fill="rgba(255,255,255,0.08)"/>
  <rect x="494" y="258" width="230" height="36" rx="18" fill="rgba(255,255,255,0.08)"/>
  <rect x="744" y="258" width="204" height="36" rx="18" fill="rgba(255,255,255,0.08)"/>

  <rect x="314" y="360" width="258" height="152" rx="28" fill="rgba(255,255,255,0.06)" stroke="rgba(255,255,255,0.1)"/>
  <text x="352" y="422" fill="#F7F7FF" font-family="Inter, Arial, sans-serif" font-size="46" font-weight="700">Hello</text>
  <text x="352" y="470" fill="#A9B9E8" font-family="Inter, Arial, sans-serif" font-size="24">English</text>
  <path d="M378 512L360 554L412 520" fill="rgba(255,255,255,0.06)" stroke="rgba(255,255,255,0.1)"/>

  <rect x="706" y="324" width="248" height="152" rx="28" fill="rgba(255,255,255,0.08)" stroke="rgba(255,255,255,0.12)"/>
  <text x="744" y="386" fill="#F7F7FF" font-family="Inter, Arial, sans-serif" font-size="44" font-weight="700">Bonjour</text>
  <text x="744" y="434" fill="#A9B9E8" font-family="Inter, Arial, sans-serif" font-size="24">French</text>
  <path d="M842 476L878 520L824 496" fill="rgba(255,255,255,0.08)" stroke="rgba(255,255,255,0.12)"/>

  <rect x="640" y="534" width="286" height="174" rx="30" fill="rgba(255,255,255,0.06)" stroke="rgba(255,255,255,0.1)"/>
  <text x="678" y="594" fill="#F7F7FF" font-family="Inter, Arial, sans-serif" font-size="38" font-weight="700">你好</text>
  <text x="782" y="594" fill="#F7F7FF" font-family="Inter, Arial, sans-serif" font-size="38" font-weight="700">Hola</text>
  <text x="678" y="640" fill="#A9B9E8" font-family="Inter, Arial, sans-serif" font-size="22">OCR • Voice • Offline</text>
  <rect x="678" y="662" width="206" height="8" rx="4" fill="rgba(255,255,255,0.14)"/>
  <rect x="678" y="682" width="158" height="8" rx="4" fill="rgba(255,255,255,0.1)"/>

  <g opacity="0.92">
    <rect x="344" y="612" width="186" height="124" rx="28" fill="rgba(255,255,255,0.07)" stroke="rgba(255,255,255,0.11)"/>
    <path d="M404 650C404 635.641 415.641 624 430 624C444.359 624 456 635.641 456 650V676C456 690.359 444.359 702 430 702C415.641 702 404 690.359 404 676V650Z" fill="url(#accent)"/>
    <rect x="424" y="704" width="12" height="24" rx="6" fill="url(#accent)"/>
    <rect x="396" y="724" width="68" height="12" rx="6" fill="url(#accent)"/>
  </g>

  <g>
    <rect x="492" y="548" width="92" height="92" rx="24" fill="rgba(255,255,255,0.08)" stroke="rgba(255,255,255,0.14)"/>
    <path d="M518 586H544" stroke="#8EC9FF" stroke-width="10" stroke-linecap="round"/>
    <path d="M562 570L562 604" stroke="#8EC9FF" stroke-width="10" stroke-linecap="round"/>
    <path d="M514 568V594M514 568H540M514 594H540" stroke="#FBE74E" stroke-width="8" stroke-linecap="round" stroke-linejoin="round"/>
  </g>

  <g>
    <rect x="516" y="388" width="152" height="152" rx="38" fill="rgba(17,22,40,0.44)" stroke="rgba(255,255,255,0.12)"/>
    <rect x="536" y="408" width="112" height="112" rx="28" fill="url(#iconGlow)"/>
    <path d="M590 444L614 444" stroke="white" stroke-width="10" stroke-linecap="round"/>
    <path d="M602 432L602 492" stroke="white" stroke-width="10" stroke-linecap="round"/>
    <path d="M568 456C568 479.196 586.804 498 610 498" stroke="white" stroke-width="10" stroke-linecap="round"/>
    <path d="M632 434C652 450 654 478 636 496" stroke="rgba(255,255,255,0.88)" stroke-width="10" stroke-linecap="round"/>
  </g>

  <rect x="342" y="148" width="214" height="54" rx="27" fill="rgba(255,255,255,0.08)" stroke="rgba(255,255,255,0.12)"/>
  <text x="374" y="182" fill="#F7F7FF" font-family="Inter, Arial, sans-serif" font-size="28" font-weight="700">Translate AI</text>
</svg>
