<svg xmlns="http://www.w3.org/2000/svg" width="1600" height="1000" viewBox="0 0 1600 1000" role="img" aria-labelledby="title desc">
  <title id="title">Packet Stream</title>
  <desc id="desc">Technology themed illustration asset with gradients, interface panels, and connected nodes.</desc>
  <defs>
    <linearGradient id="bg" x1="0" y1="0" x2="1" y2="1">
      <stop offset="0%" stop-color="#111827"/>
      <stop offset="60%" stop-color="#111c34"/>
      <stop offset="100%" stop-color="#0a0f1d"/>
    </linearGradient>
    <linearGradient id="glow" x1="0" y1="0" x2="1" y2="0">
      <stop offset="0%" stop-color="#9333ea" stop-opacity="0.95"/>
      <stop offset="100%" stop-color="#38bdf8" stop-opacity="0.9"/>
    </linearGradient>
    <filter id="blur"><feGaussianBlur stdDeviation="28"/></filter>
  </defs>
  <rect width="1600" height="1000" fill="url(#bg)"/>
  <g stroke="rgba(255,255,255,0.08)" stroke-width="1">
    <path d="M0 180H1600"/><path d="M0 360H1600"/><path d="M0 540H1600"/><path d="M0 720H1600"/>
    <path d="M180 0V1000"/><path d="M420 0V1000"/><path d="M660 0V1000"/><path d="M900 0V1000"/><path d="M1140 0V1000"/><path d="M1380 0V1000"/>
  </g>
  <circle cx="400" cy="300" r="180" fill="#9333ea" opacity="0.12" filter="url(#blur)"/>
  <circle cx="1180" cy="760" r="220" fill="#38bdf8" opacity="0.1" filter="url(#blur)"/>
  <rect x="96" y="108" width="1408" height="784" rx="36" fill="rgba(255,255,255,0.04)" stroke="rgba(255,255,255,0.1)"/>
  <g transform="translate(150 170)">
    <text x="0" y="0" fill="#f3f4f6" font-size="54" font-family="Segoe UI, Arial, sans-serif" font-weight="700">Packet Stream</text>
    <text x="0" y="54" fill="rgba(248,250,252,0.74)" font-size="24" font-family="Segoe UI, Arial, sans-serif">Curated technology asset for product pages, dashboards, and editorial layouts.</text>
  </g>
  <g transform="translate(150 280)">
    <rect x="0" y="0" width="620" height="430" rx="28" fill="rgba(8,15,30,0.75)" stroke="rgba(255,255,255,0.1)"/>
    <path d="M48 340C138 220 222 310 312 210S486 290 572 140" fill="none" stroke="url(#glow)" stroke-width="10" stroke-linecap="round"/>
    <circle cx="128" cy="268" r="10" fill="#9333ea"/>
    <circle cx="296" cy="226" r="12" fill="#38bdf8"/>
    <circle cx="468" cy="244" r="10" fill="#9333ea"/>
    <rect x="52" y="56" width="164" height="94" rx="18" fill="rgba(37,99,235,0.18)" stroke="rgba(255,255,255,0.1)"/>
    <rect x="236" y="56" width="164" height="94" rx="18" fill="rgba(16,185,129,0.16)" stroke="rgba(255,255,255,0.1)"/>
    <rect x="420" y="56" width="148" height="94" rx="18" fill="rgba(244,114,182,0.14)" stroke="rgba(255,255,255,0.1)"/>
    <text x="72" y="110" fill="#f3f4f6" font-size="18" font-family="Segoe UI, Arial, sans-serif">Live metrics</text>
    <text x="256" y="110" fill="#f3f4f6" font-size="18" font-family="Segoe UI, Arial, sans-serif">Event stream</text>
    <text x="440" y="110" fill="#f3f4f6" font-size="18" font-family="Segoe UI, Arial, sans-serif">AI hints</text>
  </g>
  <g transform="translate(930 180)">
    <rect x="0" y="0" width="430" height="540" rx="32" fill="rgba(9,14,26,0.82)" stroke="rgba(255,255,255,0.1)"/>
    <rect x="38" y="42" width="354" height="140" rx="22" fill="rgba(255,255,255,0.04)"/>
    <circle cx="104" cy="112" r="42" fill="url(#glow)" opacity="0.9"/>
    <rect x="170" y="84" width="170" height="16" rx="8" fill="rgba(255,255,255,0.84)"/>
    <rect x="170" y="118" width="124" height="12" rx="6" fill="rgba(255,255,255,0.36)"/>
    <rect x="38" y="212" width="354" height="84" rx="20" fill="rgba(255,255,255,0.04)"/>
    <rect x="38" y="320" width="354" height="84" rx="20" fill="rgba(255,255,255,0.04)"/>
    <rect x="38" y="428" width="354" height="68" rx="20" fill="rgba(255,255,255,0.04)"/>
    <path d="M86 252H344" stroke="#9333ea" stroke-width="6" stroke-linecap="round" opacity="0.9"/>
    <path d="M86 360H312" stroke="#38bdf8" stroke-width="6" stroke-linecap="round" opacity="0.9"/>
    <path d="M86 462H280" stroke="rgba(255,255,255,0.44)" stroke-width="6" stroke-linecap="round"/>
  </g>
  <g stroke="url(#glow)" stroke-width="3" opacity="0.65">
    <path d="M770 250 C870 190, 980 210, 1070 260" fill="none"/>
    <path d="M720 620 C880 560, 980 590, 1180 710" fill="none"/>
    <path d="M520 730 C660 640, 800 630, 1010 770" fill="none"/>
  </g>
</svg>
