<svg xmlns="http://www.w3.org/2000/svg" width="1600" height="1000" viewBox="0 0 1600 1000" role="img" aria-labelledby="title desc">
  <title id="title">Data Researcher</title>
  <desc id="desc">People themed illustration asset showing modern teams, creators, and knowledge workers in tech-adjacent settings.</desc>
  <defs>
    <linearGradient id="bg" x1="0" y1="0" x2="1" y2="1">
      <stop offset="0%" stop-color="#0f172a"/>
      <stop offset="100%" stop-color="#151d33"/>
    </linearGradient>
    <linearGradient id="accent" x1="0" y1="0" x2="1" y2="0">
      <stop offset="0%" stop-color="#1d4ed8"/>
      <stop offset="100%" stop-color="#22d3ee"/>
    </linearGradient>
  </defs>
  <rect width="1600" height="1000" fill="url(#bg)"/>
  <circle cx="240" cy="180" r="180" fill="#1d4ed8" opacity="0.12"/>
  <circle cx="1350" cy="180" r="220" fill="#22d3ee" opacity="0.12"/>
  <rect x="96" y="108" width="1408" height="784" rx="36" fill="rgba(255,255,255,0.04)" stroke="rgba(255,255,255,0.1)"/>
  <g transform="translate(150 170)">
    <text x="0" y="0" fill="#f8fafc" font-size="54" font-family="Segoe UI, Arial, sans-serif" font-weight="700">Data Researcher</text>
    <text x="0" y="54" fill="rgba(248,250,252,0.74)" font-size="24" font-family="Segoe UI, Arial, sans-serif">Curated people asset for editorial, support, team, and lifestyle product sections.</text>
  </g>
  <rect x="150" y="720" width="1300" height="96" rx="24" fill="rgba(8,15,30,0.72)"/>
  <g transform="translate(220 310)">
    <circle cx="0" cy="0" r="58" fill="#f3d3b4"/>
    <path d="M-76 182c8-98 36-144 76-144s68 46 76 144" fill="rgba(37,99,235,0.28)"/>
    <rect x="86" y="36" width="250" height="162" rx="24" fill="rgba(255,255,255,0.05)" stroke="rgba(255,255,255,0.1)"/>
    <rect x="116" y="70" width="190" height="18" rx="9" fill="url(#accent)"/>
    <rect x="116" y="108" width="150" height="12" rx="6" fill="rgba(255,255,255,0.48)"/>
    <rect x="116" y="136" width="174" height="12" rx="6" fill="rgba(255,255,255,0.24)"/>
  </g>
  <g transform="translate(658 320)">
    <circle cx="0" cy="0" r="54" fill="#f3d3b4"/>
    <path d="M-84 210c10-110 40-162 84-162s74 52 84 162" fill="rgba(16,185,129,0.22)"/>
    <rect x="-120" y="162" width="240" height="36" rx="18" fill="rgba(255,255,255,0.06)"/>
    <rect x="-30" y="82" width="200" height="128" rx="24" fill="rgba(8,15,30,0.72)" stroke="rgba(255,255,255,0.1)"/>
    <rect x="0" y="112" width="140" height="12" rx="6" fill="url(#accent)"/>
    <rect x="0" y="144" width="110" height="10" rx="5" fill="rgba(255,255,255,0.44)"/>
  </g>
  <g transform="translate(1174 280)">
    <rect x="0" y="0" width="260" height="140" rx="26" fill="rgba(255,255,255,0.05)" stroke="rgba(255,255,255,0.1)"/>
    <circle cx="44" cy="40" r="10" fill="#1d4ed8"/>
    <circle cx="80" cy="40" r="10" fill="#22d3ee"/>
    <rect x="34" y="74" width="188" height="14" rx="7" fill="rgba(255,255,255,0.8)"/>
    <rect x="34" y="104" width="150" height="12" rx="6" fill="rgba(255,255,255,0.34)"/>
  </g>
  <g transform="translate(1050 560)">
    <rect x="0" y="0" width="300" height="170" rx="28" fill="rgba(8,15,30,0.72)" stroke="rgba(255,255,255,0.1)"/>
    <rect x="26" y="34" width="120" height="18" rx="9" fill="url(#accent)"/>
    <rect x="26" y="72" width="214" height="12" rx="6" fill="rgba(255,255,255,0.38)"/>
    <rect x="26" y="100" width="188" height="12" rx="6" fill="rgba(255,255,255,0.26)"/>
    <path d="M26 138 C96 120, 162 158, 238 132" fill="none" stroke="url(#accent)" stroke-width="8" stroke-linecap="round"/>
  </g>
</svg>
